P3
5 5
255
3 
3 
3 
173 
173 
173 
173 
173 
173 
173 
173 
173 
173 
173 
173 
143 
143 
143 
3 
3 
3 
173 
173 
173 
173 
173 
173 
173 
173 
173 
143 
143 
143 
143 
143 
143 
3 
3 
3 
173 
173 
173 
173 
173 
173 
143 
143 
143 
143 
143 
143 
143 
143 
143 
3 
3 
3 
173 
173 
173 
143 
143 
143 
143 
143 
143 
143 
143 
143 
143 
143 
143 
3 
3 
3 
