P3
5 5
255
138 
3 
3 
14 
152 
173 
14 
152 
173 
14 
152 
173 
14 
152 
173 
219 
194 
143 
124 
109 
99 
57 
117 
128 
21 
142 
162 
14 
152 
173 
219 
194 
143 
185 
143 
109 
124 
109 
99 
57 
117 
128 
14 
152 
173 
219 
194 
143 
213 
182 
134 
185 
143 
109 
124 
109 
99 
14 
152 
173 
219 
194 
143 
219 
194 
143 
219 
194 
143 
219 
194 
143 
138 
3 
3 
