P3
5 5
255
163 
28 
28 
39 
177 
198 
39 
177 
198 
39 
177 
198 
39 
177 
198 
244 
219 
168 
163 
28 
28 
39 
177 
198 
39 
177 
198 
39 
177 
198 
244 
219 
168 
244 
219 
168 
163 
28 
28 
39 
177 
198 
39 
177 
198 
244 
219 
168 
244 
219 
168 
244 
219 
168 
163 
28 
28 
39 
177 
198 
244 
219 
168 
244 
219 
168 
244 
219 
168 
244 
219 
168 
163 
28 
28 
