P3
5 5
255
3 
3 
3 
152 
152 
152 
152 
152 
152 
152 
152 
152 
152 
152 
152 
194 
194 
194 
3 
3 
3 
152 
152 
152 
152 
152 
152 
152 
152 
152 
194 
194 
194 
194 
194 
194 
3 
3 
3 
152 
152 
152 
152 
152 
152 
194 
194 
194 
194 
194 
194 
194 
194 
194 
3 
3 
3 
152 
152 
152 
194 
194 
194 
194 
194 
194 
194 
194 
194 
194 
194 
194 
3 
3 
3 
