P3
5 5
255
138 
138 
138 
14 
14 
14 
14 
14 
14 
14 
14 
14 
14 
14 
14 
219 
219 
219 
138 
138 
138 
14 
14 
14 
14 
14 
14 
14 
14 
14 
219 
219 
219 
219 
219 
219 
138 
138 
138 
14 
14 
14 
14 
14 
14 
219 
219 
219 
219 
219 
219 
219 
219 
219 
138 
138 
138 
14 
14 
14 
219 
219 
219 
219 
219 
219 
219 
219 
219 
219 
219 
219 
138 
138 
138 
