P3
2 2
255
39 
34 
27 
148 
131 
102 
229 
204 
159 
0 
0 
0 
