P3
2 2
255
46 
41 
32 
178 
158 
123 
0 
246 
192 
0 
0 
0 
