P3
5 5
255
31 
31 
31 
124 
124 
124 
124 
124 
124 
124 
124 
124 
124 
124 
124 
195 
195 
195 
31 
31 
31 
124 
124 
124 
124 
124 
124 
124 
124 
124 
195 
195 
195 
195 
195 
195 
31 
31 
31 
124 
124 
124 
124 
124 
124 
195 
195 
195 
195 
195 
195 
195 
195 
195 
31 
31 
31 
124 
124 
124 
195 
195 
195 
195 
195 
195 
195 
195 
195 
195 
195 
195 
31 
31 
31 
