P3
5 5
255
138 3 3    14 152 173       14 152 173     14 152 173    14 152 173 
219 194 143    138 3 3     14 152 173     14 152 173     14 152 173 
219 194 143     219 194 143       138 3 3    14 152 173    14 152 173 
219 194 143   219 194 143       219 194 143    138 3 3      14 152 173
219 194 143   219 194 143      219 194 143    219 194 143   138 3 3 